<?xml version="1.0" encoding="utf-8"?>
<!-- Generator: Adobe Illustrator 19.2.1, SVG Export Plug-In . SVG Version: 6.00 Build 0)  -->
<svg version="1.1" id="Layer_1" xmlns="http://www.w3.org/2000/svg" xmlns:xlink="http://www.w3.org/1999/xlink" x="0px" y="0px"
	 viewBox="0 0 500 500" style="enable-background:new 0 0 500 500;" xml:space="preserve">
<style type="text/css">
	.st0{fill:#FD5E4C;}
</style>
<g>
	<g>
		<path class="st0" d="M137.8,173.9c0,15.9-2.2,32.1-1,47.9c1,13,16.2,10.6,24.7,7.3c4.9-1.9,10.3-4.2,13.6-8.5
			c2.8-3.5,3.8-8.3,4.1-12.7c0.7-9.8-3-19.9-9.2-27.4c-7.3-8.9-18.2-13-29.3-9.2c-3,1-1.7,5.9,1.3,4.8c20.9-7.1,38.6,21.1,30.4,39.3
			c-2.5,5.4-9.4,7.9-14.6,9.8c-3.2,1.1-6.7,2.2-10.1,1.8c-4.9-0.5-5.9-3.2-6-7.7c-0.4-15.1,0.9-30.2,1-45.3
			C142.8,170.7,137.8,170.7,137.8,173.9L137.8,173.9z"/>
	</g>
</g>
<g>
	<g>
		<path class="st0" d="M187.4,169.4c-0.8,13.9-2.4,28-1,41.9c0.5,4.3,0.8,11.5,6,12.2c10.5,1.6,22.2,1.6,32.7,0
			c3.2-0.5,1.8-5.3-1.3-4.8c-10.6,1.6-21.6,0.7-32.2-0.3c0.7,0.4,1.4,0.8,2.2,1.2c-2-2.7-2.2-6.7-2.5-9.9c-0.4-5-0.4-9.9-0.3-14.9
			c0.2-8.5,0.9-17,1.4-25.5C192.6,166.2,187.6,166.2,187.4,169.4L187.4,169.4z"/>
	</g>
</g>
<g>
	<g>
		<path class="st0" d="M189.9,197.5c8.9,0.1,17.8,0.9,26.5-1.2c3.1-0.8,1.8-5.6-1.3-4.8c-8.3,2-16.8,1.1-25.2,1
			C186.7,192.5,186.7,197.5,189.9,197.5L189.9,197.5z"/>
	</g>
</g>
<g>
	<g>
		<path class="st0" d="M189.9,171.6c10.9,0,21.8,0,32.6,0c3.2,0,3.2-5,0-5c-10.9,0-21.8,0-32.6,0
			C186.7,166.6,186.7,171.6,189.9,171.6L189.9,171.6z"/>
	</g>
</g>
<g>
	<g>
		<path class="st0" d="M264.2,166.6c-9.1-0.9-21.6-4.7-27,5.4c-4.1,7.7-3.2,17.2,6,19.9c7.7,2.2,19.1,1.2,23.8,9.3
			c3.5,6-4.7,11.3-9.3,13.2c-6.5,2.8-17.6,4.2-20.4-4.3c-1-3-5.8-1.7-4.8,1.3c5.1,15.5,27,10.8,36,1.7c4.8-4.8,5.9-11.5,1.1-16.8
			c-6.9-7.5-16.2-6.7-25.1-9.4c-2.3-0.7-4.1-1.6-4.6-4.2c-0.6-3.4,0.8-8.7,3.5-11c5.1-4.2,14.9-0.8,20.7-0.3
			C267.4,171.9,267.3,166.9,264.2,166.6L264.2,166.6z"/>
	</g>
</g>
<g>
	<g>
		<path class="st0" d="M279.7,169.1c0,15.4,0,30.8,0,46.1c0,3.2,5,3.2,5,0c0-15.4,0-30.8,0-46.1
			C284.7,165.9,279.7,165.9,279.7,169.1L279.7,169.1z"/>
	</g>
</g>
<g>
	<g>
		<path class="st0" d="M322.8,165.1c-10.4,0-19.6,4.8-24.3,14.3c-4.5,9.1-5.3,21.5-1.7,31.1c7.4,19.6,31.9,10.7,40.3-3
			c-1.6-0.4-3.1-0.8-4.7-1.3c0.3,4.8,0.2,9.5,0.2,14.3c0,3.2,5,3.2,5,0c0-4.8,0.1-9.5-0.2-14.3c-0.2-2.4-3.3-3.4-4.7-1.3
			c-6.8,11-27.2,19.1-31.9,1.9c-4.5-16.5,2.6-36.8,21.9-36.8C326,170.1,326,165.1,322.8,165.1L322.8,165.1z"/>
	</g>
</g>
<g>
	<g>
		<path class="st0" d="M349.6,164.3c0.1,18,3,36,1.1,54c-0.3,3.2,4.7,3.2,5,0c1.9-18-1-36-1.1-54C354.5,161,349.5,161,349.6,164.3
			L349.6,164.3z"/>
	</g>
</g>
<g>
	<g>
		<path class="st0" d="M349.9,165.5c6.6,9.6,12.2,19.9,18.4,29.8c5.7,9,12,18.9,20.9,25.1c1.7,1.2,3.7-0.4,3.8-2.2
			c1-18.8-0.1-37.5-0.2-56.3c0-3.2-5-3.2-5,0c0,18.8,1.2,37.4,0.2,56.3c1.3-0.7,2.5-1.4,3.8-2.2c-8.9-6.2-15-16.7-20.6-25.7
			c-5.7-9.1-10.8-18.6-17-27.4C352.4,160.4,348.1,162.9,349.9,165.5L349.9,165.5z"/>
	</g>
</g>
<g>
	<g>
		<path class="st0" d="M150.3,261.9c-3.2,21.8-13.8,41.7-15.8,63.7c-0.3,3.2,4.7,3.2,5,0c2-21.5,12.5-41,15.7-62.4
			C155.6,260,150.8,258.7,150.3,261.9L150.3,261.9z"/>
	</g>
</g>
<g>
	<g>
		<path class="st0" d="M150.6,264.9c9,20.7,21.9,39.8,29,61.3c1,3,5.8,1.7,4.8-1.3c-7.2-21.9-20.3-41.4-29.5-62.5
			C153.6,259.4,149.3,262,150.6,264.9L150.6,264.9z"/>
	</g>
</g>
<g>
	<g>
		<path class="st0" d="M142.6,306.7c9.9,0,19.8,0,29.8,0c3.2,0,3.2-5,0-5c-9.9,0-19.8,0-29.8,0C139.4,301.7,139.4,306.7,142.6,306.7
			L142.6,306.7z"/>
	</g>
</g>
<g>
	<g>
		<path class="st0" d="M209.9,263.7c0,19.5,1.1,39,1.1,58.5c0,3.2,5,3.2,5,0c0-19.5-1.1-39-1.1-58.5
			C214.9,260.4,209.9,260.4,209.9,263.7L209.9,263.7z"/>
	</g>
</g>
<g>
	<g>
		<path class="st0" d="M212.4,266.2c8.8,0.1,20.4-0.3,27.6,5.9c6.9,6,7.2,14.3,8.2,22.8c0.9,7.9,2.3,19.3-6,23.8
			c-8.3,4.5-19.2,3.1-28,1.2c-3.1-0.7-4.5,4.1-1.3,4.8c10.3,2.3,22.7,3.6,32.4-1.9c9.2-5.3,9-17.3,8-26.4c-1.1-10-1.5-19.6-9-27
			c-8.1-8-21.2-8-31.9-8.1C209.2,261.1,209.2,266.1,212.4,266.2L212.4,266.2z"/>
	</g>
</g>
<g>
	<g>
		<path class="st0" d="M268.4,260.3c-1.9,21.8-8,43.2-12.3,64.6c-0.6,3.1,4.2,4.5,4.8,1.3c4.4-21.9,10.6-43.6,12.5-65.9
			C273.7,257.1,268.7,257.1,268.4,260.3L268.4,260.3z"/>
	</g>
</g>
<g>
	<g>
		<path class="st0" d="M269.9,261.5c13,20.9,23.9,42.8,34.9,64.8c1.4,2.9,5.8,0.3,4.3-2.5c-11-22-21.9-43.9-34.9-64.8
			C272.5,256.3,268.2,258.8,269.9,261.5L269.9,261.5z"/>
	</g>
</g>
<g>
	<g>
		<path class="st0" d="M265.3,302.2c8.9,0,17.8,0,26.8,0c3.2,0,3.2-5,0-5c-8.9,0-17.8,0-26.8,0C262.1,297.2,262.1,302.2,265.3,302.2
			L265.3,302.2z"/>
	</g>
</g>
<g>
	<g>
		<path class="st0" d="M304.8,262.7c7.9,12.7,17,24.4,29,33.5c2.6,1.9,5.1-2.4,2.5-4.3c-11.3-8.6-19.8-19.8-27.2-31.7
			C307.4,257.4,303.1,259.9,304.8,262.7L304.8,262.7z"/>
	</g>
</g>
<g>
	<g>
		<path class="st0" d="M344.6,261.7c-2.4,21.8-13.2,41.2-21.3,61.2c-1.2,3,3.6,4.3,4.8,1.3c8.3-20.5,19-40.2,21.5-62.6
			C349.9,258.5,344.9,258.5,344.6,261.7L344.6,261.7z"/>
	</g>
</g>
</svg>
